<?xml version="1.0" encoding="UTF-8"?>
<!DOCTYPE svg PUBLIC "-//W3C//DTD SVG 1.1//EN" "http://www.w3.org/Graphics/SVG/1.1/DTD/svg11.dtd">
<svg xmlns="http://www.w3.org/2000/svg" version="1.1" width="256px" height="256px" style="shape-rendering:geometricPrecision; text-rendering:geometricPrecision; image-rendering:optimizeQuality; fill-rule:evenodd; clip-rule:evenodd" xmlns:xlink="http://www.w3.org/1999/xlink">
<g><path style="opacity:0.977" fill="#fcb641" d="M 126.5,-0.5 C 127.167,-0.5 127.833,-0.5 128.5,-0.5C 136.934,9.36438 145.601,19.031 154.5,28.5C 166.836,24.3304 179.169,20.4971 191.5,17C 194.731,29.7579 197.731,42.5913 200.5,55.5C 213.17,57.4671 225.67,60.1337 238,63.5C 235.141,75.7552 231.641,87.9218 227.5,100C 236.336,109.335 245.669,118.168 255.5,126.5C 255.5,127.167 255.5,127.833 255.5,128.5C 245.669,136.832 236.336,145.665 227.5,155C 231.641,167.078 235.141,179.245 238,191.5C 225.67,194.866 213.17,197.533 200.5,199.5C 197.731,212.409 194.731,225.242 191.5,238C 179.169,234.503 166.836,230.67 154.5,226.5C 145.601,235.969 136.934,245.636 128.5,255.5C 127.833,255.5 127.167,255.5 126.5,255.5C 118.066,245.636 109.399,235.969 100.5,226.5C 88.1645,230.67 75.8312,234.503 63.5,238C 60.2692,225.242 57.2692,212.409 54.5,199.5C 41.8299,197.533 29.3299,194.866 17,191.5C 19.8588,179.245 23.3588,167.078 27.5,155C 18.6643,145.665 9.33098,136.832 -0.5,128.5C -0.5,127.833 -0.5,127.167 -0.5,126.5C 9.33098,118.168 18.6643,109.335 27.5,100C 23.3588,87.9218 19.8588,75.7552 17,63.5C 29.3299,60.1337 41.8299,57.4671 54.5,55.5C 57.2692,42.5913 60.2692,29.7579 63.5,17C 75.8312,20.4971 88.1645,24.3304 100.5,28.5C 109.399,19.031 118.066,9.36438 126.5,-0.5 Z"/></g>
<g><path style="opacity:1" fill="#fdc466" d="M 117.5,55.5 C 155.419,53.6296 181.919,69.963 197,104.5C 206.193,137.925 197.693,165.759 171.5,188C 139.506,208.5 108.506,207.166 78.5,184C 56.275,161.604 49.4417,135.104 58,104.5C 69.2517,77.639 89.0851,61.3057 117.5,55.5 Z"/></g>
</svg>
